<mxfile host="app.diagrams.net" modified="2023-10-07T03:26:18.426Z" agent="Mozilla/5.0 (Macintosh; Intel Mac OS X 10_15_7) AppleWebKit/537.36 (KHTML, like Gecko) Chrome/117.0.0.0 Safari/537.36" version="21.3.3" etag="HI0tu9DgT7wsNjGSBCJD" type="github">
  <diagram name="第 1 页" id="JTo1gsHqorB5zqPtdmjg">
    <mxGraphModel>
      <root>
        <mxCell id="0" />
        <mxCell id="1" parent="0" />
      </root>
    </mxGraphModel>
  </diagram>
</mxfile>
